<svg xmlns="http://www.w3.org/2000/svg" width="32" height="32" viewBox="0 0 32 32" fill="none">
  <circle cx="16" cy="16" r="15" fill="#4ade80" stroke="#166534" stroke-width="2"/>
  <path d="M16 5C10.5 5 6 9.5 6 15C6 20.5 10.5 25 16 25C21.5 25 26 20.5 26 15C26 9.5 21.5 5 16 5ZM16 23C11.6 23 8 19.4 8 15C8 10.6 11.6 7 16 7C20.4 7 24 10.6 24 15C24 19.4 20.4 23 16 23Z" fill="#166534"/>
  <path d="M16 9C12.7 9 10 11.7 10 15C10 18.3 12.7 21 16 21C19.3 21 22 18.3 22 15C22 11.7 19.3 9 16 9ZM16 19C13.8 19 12 17.2 12 15C12 12.8 13.8 11 16 11C18.2 11 20 12.8 20 15C20 17.2 18.2 19 16 19Z" fill="#166534"/>
  <path d="M16 13C14.9 13 14 13.9 14 15C14 16.1 14.9 17 16 17C17.1 17 18 16.1 18 15C18 13.9 17.1 13 16 13Z" fill="#166534"/>
  <path d="M8 27L16 30L24 27" stroke="#166534" stroke-width="2" stroke-linecap="round"/>
</svg>